<?xml version="1.0" standalone="no"?>
<svg width="150" xmlns:xlink="http://www.w3.org/1999/xlink" baseProfile="full"
    zoomAndPan="magnify" contentStyleType="text/css" viewBox="0 0 150 32" height="32" preserveAspectRatio="xMidYMid meet"
    xmlns="http://www.w3.org/2000/svg" xml:space="preserve" version="1.0"> 
    <style type="text/css">  .st0{fill:#fff;}  .st1{fill-rule:evenodd;clip-rule:evenodd;fill:#fff;} </style> 
    <g id="XMLID_50_">  
        <g id="XMLID_120_">   
            <g id="XMLID_131_">    
                <g id="XMLID_160_">     
                    <polygon class="st0" points="70.7,5.7 40.600002,5.7 41.0,2.3 71.1,2.3" id="XMLID_173_"/>     
                    <polygon class="st0" points="65.0,11.299998 48.8,11.299998 49.100002,8.8 65.299995,8.8" id="XMLID_169_"/>     
                    <polygon class="st0" points="69.5,16.6 39.4,16.6 39.7,13.999999 69.799995,13.999999" id="XMLID_168_"/>     
                    <polygon class="st0" points="70.1,21.9 43.100002,21.9 43.3,19.4 70.399994,19.4" id="XMLID_167_"/>     
                    <polygon class="st0" points="45.4,14.799998 39.5,14.799998 40.9,3.1999996 46.7,3.1999996" id="XMLID_166_"/>     
                    <polygon class="st0" points="69.7,14.799998 63.8,14.799998 64.5,8.8 70.399994,8.8" id="XMLID_165_"/>     
                    <polygon class="st0" points="69.0,32.2 63.500008,32.2 65.0,19.4 70.399994,19.4" id="XMLID_164_"/>     
                    <polygon class="st0" points="41.2,25.8 35.600002,25.8 45.4,14.499999 51.0,14.499999" id="XMLID_163_"/>     
                    <polygon class="st0" points="46.7,32.2 40.4,32.2 49.8,20.6 56.100002,20.6" id="XMLID_162_"/>     
                    <polygon class="st0" points="57.500004,32.2 51.2,32.2 60.600002,20.6 66.899994,20.6" id="XMLID_161_"/>    </g>    
                <g id="XMLID_149_">     
                    <g id="XMLID_158_">      
                        <polygon class="st0" points="76.2,28.8 74.5,32.2 85.5,32.2 85.899994,28.8 81.0,28.8" id="XMLID_159_"/>     </g>     
                    <g id="XMLID_156_">      
                        <polygon class="st0" points="89.7,12.599999 82.799995,12.599999 89.7,2.3 82.799995,2.3 
                            73.799995,15.399999 81.1,15.399999 74.7,25.5 81.5,25.5 83.5,22.3" id="XMLID_157_"/>     </g>     
                    <g id="XMLID_154_">      
                        <polygon class="st0" points="110.399994,5.7 92.1,5.7 92.5,2.3 110.799995,2.3" id="XMLID_155_"/>     </g>     
                    <g id="XMLID_152_">      
                        <polygon class="st0" points="108.7,32.2 87.799995,32.2 88.2,28.8 109.1,28.8" id="XMLID_153_"/>     </g>     
                    <g id="XMLID_150_">      
                        <polygon class="st0" points="102.0,29.3 95.899994,29.3 98.7,3.9999998 104.899994,3.9999998" id="XMLID_151_"/>     </g>    </g>    
                <g id="XMLID_145_">     
                    <polygon class="st0" points="31.9,5.7 5.8000007,5.7 6.2000003,2.3 32.3,2.3" id="XMLID_148_"/>     
                    <polygon class="st0" points="5.2000003,32.2 -2.2351742E-7,32.2 3.3999994,2.3 8.7,2.3" id="XMLID_147_"/>     
                    <polygon class="st0" points="31.700003,32.2 26.400003,32.2 29.900003,2.3 35.100002,2.3" id="XMLID_146_"/>    </g>    
                <g id="XMLID_132_">     
                    <g id="XMLID_143_">      
                        <polygon class="st1" points="150.09999,-2.3841858E-7 148.7,3.1999996 145.0,11.799998 
                            145.0,11.799998 148.09999,13.999999 148.09999,13.999999 148.09999,13.999999 148.2,13.999999 
                            148.09999,13.999999 145.0,21.6 148.0,23.9 148.09999,23.9 148.0,23.9 148.09999,23.9 
                            148.0,23.9 143.7,32.2 137.2,32.2 141.59999,23.9 138.59999,21.7 138.5,21.7 138.5,21.6 
                            138.5,21.6 138.59999,21.6 141.7,13.999999 138.59999,11.799998 138.5,11.799998 140.0,8.3 
                            137.2,7.7" id="XMLID_144_"/>     </g>     
                    <g id="XMLID_141_">      
                        <polygon class="st1" points="114.7,8.0 120.299995,8.0 119.799995,12.999999 114.2,12.999999" id="XMLID_142_"/>     </g>     
                    <g id="XMLID_139_">      
                        <polygon class="st1" points="122.69999,8.0 128.3,8.0 127.80001,12.999999 122.19999,12.999999"
                            id="XMLID_140_"/>     </g>     
                    <g id="XMLID_137_">      
                        <polygon class="st1" points="130.0,12.999999 130.5,8.0 136.09999,8.0 135.59999,12.999999" id="XMLID_138_"/>     </g>     
                    <g id="XMLID_135_">      
                        <polygon class="st1" points="122.799995,14.599999 127.59998,14.599999 127.299995,16.6 136.4,16.6 
                            136.0,19.2 134.5,19.2 133.0,32.2 128.2,32.2 129.7,19.2 127.09998,19.2 125.69999,32.2 
                            120.89999,32.2 122.299995,19.2 119.6,19.2 117.899994,32.2 113.2,32.2 114.899994,19.2 
                            113.0,19.2 113.399994,16.6 122.59998,16.6" id="XMLID_136_"/>     </g>     
                    <g id="XMLID_133_">      
                        <polygon class="st1" points="114.2,2.3 137.3,2.3 136.9,5.7 113.799995,5.7" id="XMLID_134_"/>     </g>    </g>   </g>   
            <polygon class="st0" points="23.000002,14.799998 29.700003,6.3999996 33.9,7.3 25.000002,18.5" id="XMLID_130_"/>   
            <polygon class="st0" points="18.700003,23.8 22.1,19.6 24.1,23.2 20.700003,27.400002" id="XMLID_129_"/>   
            <polygon class="st0" points="15.9000025,27.400002 18.700003,23.8 20.700003,27.400002 17.900003,31.0" id="XMLID_128_"/>   
            <polygon class="st0" points="16.6,10.7 19.500002,7.1000004 20.6,9.099999 24.200003,15.599999 21.000002,18.5"
                id="XMLID_127_"/>   
            <polygon class="st0" points="20.6,17.9 23.200003,14.7 25.1,18.3 22.6,21.6" id="XMLID_126_"/>   
            <polygon class="st0" points="12.7,15.7 17.500002,9.599999 20.1,9.599999 21.000002,11.299998 14.700001,19.3"
                id="XMLID_125_"/>   
            <polygon class="st0" points="13.700001,23.7 16.6,20.1 19.1,24.6 16.300001,28.2" id="XMLID_124_"/>   
            <polygon class="st0" points="3.7000005,6.3999996 7.6,4.6000004 13.5,15.299998 10.7,18.9" id="XMLID_123_"/>   
            <polygon class="st0" points="2.8,28.2 10.2,18.9 12.2,22.5 4.899999,31.7" id="XMLID_122_"/>   
            <polygon class="st0" points="10.2,18.9 13.0,15.299998 15.0,18.9 12.2,22.5" id="XMLID_121_"/>  </g>  
        <polygon class="st1" points="88.5,25.5 81.399994,25.5 81.7,22.9 89.0,22.9" id="XMLID_119_"/> </g> </svg>